<svg width="106" height="32" viewBox="0 0 106 32" fill="none" xmlns="http://www.w3.org/2000/svg">
<path d="M44.3156 10.6936C43.4898 10.6936 43.0769 10.1133 43.0769 8.95279C43.0769 7.79226 43.6795 6.49782 44.8847 5.06947C46.8933 2.65913 49.683 1.26426 53.2539 0.884854L55.0951 0.784424C59.157 0.784424 62.103 2.40248 63.933 5.63858C65.0266 7.62488 65.5734 9.91247 65.5734 12.5013C65.5734 13.5726 65.4841 14.6997 65.3056 15.8825C64.6584 19.8551 63.1184 23.2251 60.6858 25.9925C58.0076 29.0501 54.8831 30.5789 51.3122 30.5789C47.7637 30.5789 45.5096 29.5857 44.5499 27.5994C44.2598 26.9745 44.1147 26.3162 44.1147 25.6243C44.1147 24.9101 44.3044 24.1625 44.6838 23.3813C45.4203 21.953 46.4246 21.2388 47.6967 21.2388C47.8083 21.2388 47.8753 21.3058 47.8976 21.4397C47.9422 21.5513 47.9311 21.674 47.8641 21.8079C47.8195 21.9418 47.7414 22.0088 47.6298 22.0088C46.871 22.0088 46.2126 22.4998 45.6546 23.4818C45.2976 24.1736 45.119 24.8097 45.119 25.39C45.119 25.9702 45.2306 26.5059 45.4538 26.9969C46.168 28.5145 47.8753 29.2733 50.5758 29.2733C53.6333 29.2733 56.4007 27.711 58.878 24.5865C61.1098 21.7745 62.5493 18.4714 63.1965 14.6773C63.4197 13.4499 63.5313 12.2893 63.5313 11.1957C63.5313 8.76309 62.9845 6.70984 61.8909 5.03599C60.4403 2.78188 58.1639 1.65482 55.0617 1.65482C51.1783 1.65482 48.2658 2.96042 46.3242 5.57163C45.3422 6.9107 44.8512 8.16051 44.8512 9.32104C44.8512 9.78972 44.9516 10.0241 45.1525 10.0241C45.0186 10.4704 44.7396 10.6936 44.3156 10.6936ZM49.1362 23.3813C49.1362 19.989 49.4375 16.6971 50.0401 13.5057C50.6427 10.2919 51.3792 7.75878 52.2496 5.90639C53.1423 4.03169 54.0016 3.09433 54.8273 3.09433C55.1844 3.09433 55.3629 3.27288 55.3629 3.62996C54.3586 5.70553 53.4771 8.47296 52.7183 11.9322C51.3122 18.2482 50.6092 22.8122 50.6092 25.6243C50.6092 25.9144 50.453 26.0595 50.1406 26.0595C49.471 26.0595 49.1362 25.1668 49.1362 23.3813Z" fill="#25262B"/>
<path d="M68.6537 26.6956C66.8236 26.6956 65.9086 25.2561 65.9086 22.377C65.9086 20.6586 66.3326 18.7727 67.1807 16.7194C68.3635 13.8404 69.9146 11.8764 71.834 10.8275C72.6598 10.3811 73.4297 10.158 74.1439 10.158C74.8581 10.158 75.416 10.3142 75.8177 10.6266C76.2418 10.9391 76.5096 11.2515 76.6212 11.564L76.8221 11.9992C76.7551 12.3786 76.5654 12.5683 76.2529 12.5683C75.8959 12.5683 75.6838 12.4902 75.6169 12.334C75.5723 12.1554 75.5164 12.0104 75.4495 11.8988C75.3825 11.7649 75.2263 11.5975 74.9808 11.3966C74.7353 11.1734 74.4564 11.0618 74.1439 11.0618C72.6932 11.0618 71.3765 12.3674 70.1936 14.9786C68.8545 17.9916 68.185 20.8259 68.185 23.4818C68.185 24.8209 68.4528 25.4904 68.9884 25.4904C69.4125 25.4904 70.0039 25.0217 70.7627 24.0844C71.5439 23.1247 72.3585 21.9307 73.2065 20.5023C74.6795 18.0474 75.8735 15.916 76.7886 14.1082C77.5474 12.5013 78.3285 11.6979 79.132 11.6979C79.556 11.6979 79.768 11.9546 79.768 12.4679C79.5672 12.8919 79.3105 13.4945 78.9981 14.2756C78.6856 15.0568 78.2727 16.6078 77.7594 18.9289C77.2461 21.25 76.9894 23.5599 76.9894 25.8586C76.9894 28.1574 77.3354 29.3068 78.0272 29.3068C78.295 29.3068 78.5405 29.184 78.7637 28.9385C78.9869 28.7153 79.1878 28.3694 79.3663 27.9007C79.4333 27.6552 79.5895 27.5325 79.835 27.5325C79.9242 27.5325 79.9912 27.566 80.0358 27.6329C80.0805 27.6999 80.0805 27.8115 80.0358 27.9677C79.9912 28.1239 79.9131 28.3359 79.8015 28.6037C79.6899 28.8939 79.4444 29.2733 79.065 29.742C78.7079 30.2106 78.3285 30.445 77.9268 30.445C76.9894 30.445 76.2641 29.8312 75.7508 28.6037C75.2598 27.3763 75.0143 25.9256 75.0143 24.2517C75.0143 22.5779 75.137 20.971 75.3825 19.4311H75.0478C72.2134 24.2741 70.082 26.6956 68.6537 26.6956Z" fill="#25262B"/>
<path d="M80.6389 23.85C80.6389 20.547 80.9737 17.601 81.6432 15.0121C82.3351 12.4232 83.2055 11.1288 84.2544 11.1288C84.7678 11.1288 85.0244 11.4078 85.0244 11.9657C84.8012 12.546 84.5223 13.316 84.1875 14.2756C83.8527 15.2353 83.4064 16.9761 82.8484 19.498C82.3128 21.9976 82.045 24.2294 82.045 26.1934C82.045 26.5059 81.8776 26.6621 81.5428 26.6621C80.9402 26.6621 80.6389 25.7247 80.6389 23.85ZM85.1248 7.98196C84.6562 7.98196 84.4218 7.5356 84.4218 6.64289C84.4218 6.10726 84.5669 5.54931 84.857 4.96904C85.1472 4.36646 85.5601 4.06516 86.0957 4.06516C86.542 4.06516 86.7652 4.32182 86.7652 4.83513C86.7652 5.34844 86.3523 6.20768 85.5266 7.41285L85.1248 7.98196Z" fill="#25262B"/>
<path d="M89.9123 31.5832C88.6178 31.5832 87.6581 30.9025 87.0332 29.5411C86.4306 28.1797 86.1293 26.1376 86.1293 23.4148C86.1293 20.692 86.5311 17.4671 87.3345 13.74C88.138 10.0129 89.0753 6.92186 90.1466 4.46689C91.2402 2.01191 92.1887 0.784424 92.9921 0.784424C93.3715 0.784424 93.5612 1.0076 93.5612 1.45396C93.0926 2.52523 92.5011 4.14328 91.787 6.30812C91.0728 8.45064 90.4702 10.4369 89.9792 12.267C89.5105 14.0971 89.0753 16.2396 88.6736 18.6946C88.2942 21.1496 88.1045 23.2586 88.1045 25.0217C88.1045 26.7625 88.2719 28.1016 88.6066 29.0389C88.9637 29.9986 89.4436 30.4785 90.0462 30.4785C90.5595 30.4785 91.0505 30.233 91.5191 29.742C91.9878 29.2733 92.3226 28.8046 92.5235 28.3359C92.635 28.0904 92.8359 28.0235 93.126 28.1351C93.2376 28.1797 93.2599 28.269 93.193 28.4029C93.1484 28.5591 93.0591 28.7488 92.9252 28.972C92.8136 29.1952 92.6016 29.5411 92.2891 30.0098C91.6196 31.0587 90.8273 31.5832 89.9123 31.5832Z" fill="#25262B"/>
<path d="M94.4969 26.6956C92.6669 26.6956 91.7518 25.2561 91.7518 22.377C91.7518 20.6586 92.1759 18.7727 93.024 16.7194C94.2068 13.8404 95.7579 11.8764 97.6773 10.8275C98.503 10.3811 99.273 10.158 99.9872 10.158C100.701 10.158 101.259 10.3142 101.661 10.6266C102.085 10.9391 102.353 11.2515 102.464 11.564L102.665 11.9992C102.598 12.3786 102.409 12.5683 102.096 12.5683C101.739 12.5683 101.527 12.4902 101.46 12.334C101.416 12.1554 101.36 12.0104 101.293 11.8988C101.226 11.7649 101.07 11.5975 100.824 11.3966C100.579 11.1734 100.3 11.0618 99.9872 11.0618C98.5365 11.0618 97.2197 12.3674 96.0369 14.9786C94.6978 17.9916 94.0283 20.8259 94.0283 23.4818C94.0283 24.8209 94.2961 25.4904 94.8317 25.4904C95.2558 25.4904 95.8472 25.0217 96.606 24.0844C97.3871 23.1247 98.2017 21.9307 99.0498 20.5023C100.523 18.0474 101.717 15.916 102.632 14.1082C103.391 12.5013 104.172 11.6979 104.975 11.6979C105.399 11.6979 105.611 11.9546 105.611 12.4679C105.41 12.8919 105.154 13.4945 104.841 14.2756C104.529 15.0568 104.116 16.6078 103.603 18.9289C103.089 21.25 102.833 23.5599 102.833 25.8586C102.833 28.1574 103.179 29.3068 103.87 29.3068C104.138 29.3068 104.384 29.184 104.607 28.9385C104.83 28.7153 105.031 28.3694 105.21 27.9007C105.277 27.6552 105.433 27.5325 105.678 27.5325C105.768 27.5325 105.834 27.566 105.879 27.6329C105.924 27.6999 105.924 27.8115 105.879 27.9677C105.834 28.1239 105.756 28.3359 105.645 28.6037C105.533 28.8939 105.288 29.2733 104.908 29.742C104.551 30.2106 104.172 30.445 103.77 30.445C102.833 30.445 102.107 29.8312 101.594 28.6037C101.103 27.3763 100.858 25.9256 100.858 24.2517C100.858 22.5779 100.98 20.971 101.226 19.4311H100.891C98.0567 24.2741 95.9253 26.6956 94.4969 26.6956Z" fill="#25262B"/>
<path d="M0 32H21.2351C22.9344 32 24.312 30.6224 24.312 28.9231C24.312 27.2237 22.9344 25.8462 21.2351 25.8462H6.15384C2.75517 25.8462 0 28.6013 0 32Z" fill="#20C997"/>
<path d="M0 14.7692H21.2351C22.9344 14.7692 24.312 13.3916 24.312 11.6923C24.312 9.99297 22.9344 8.61539 21.2351 8.61539H6.15384C2.75517 8.61539 0 11.3706 0 14.7692Z" fill="#FF6B6B"/>
<path d="M33.8462 23.3846H12.611C10.9117 23.3846 9.53413 22.007 9.53413 20.3077C9.53413 18.6084 10.9117 17.2308 12.6111 17.2308H27.6923C31.091 17.2308 33.8462 19.9859 33.8462 23.3846Z" fill="#FCC419"/>
<path d="M33.8462 6.15385H12.611C10.9117 6.15385 9.53413 4.77626 9.53413 3.07692C9.53413 1.37759 10.9117 0 12.6111 0H27.6923C31.091 0 33.8462 2.75517 33.8462 6.15385Z" fill="#228BE6"/>
</svg>
