<svg width="96" height="91" viewBox="0 0 96 91" fill="none" xmlns="http://www.w3.org/2000/svg">
<path d="M12.8269 78.6545H57.0587C60.5983 78.6545 63.4678 75.7851 63.4678 72.2455C63.4678 68.7058 60.5983 65.8364 57.0587 65.8364H25.6451C18.5658 65.8364 12.8269 71.5753 12.8269 78.6545Z" fill="#20C997"/>
<path d="M12.8269 42.7636H57.0587C60.5983 42.7636 63.4678 39.8942 63.4678 36.3545C63.4678 32.8149 60.5983 29.9455 57.0587 29.9455H25.6451C18.5658 29.9455 12.8269 35.6844 12.8269 42.7636Z" fill="#FF6B6B"/>
<path d="M83.3269 60.7091H39.0951C35.5555 60.7091 32.6861 57.8396 32.6861 54.3C32.6861 50.7604 35.5555 47.8909 39.0951 47.8909H70.5087C77.588 47.8909 83.3269 53.6298 83.3269 60.7091Z" fill="#FCC419"/>
<path d="M83.3269 24.8182H39.0951C35.5555 24.8182 32.6861 21.9487 32.6861 18.4091C32.6861 14.8694 35.5555 12 39.0951 12H70.5087C77.588 12 83.3269 17.7389 83.3269 24.8182Z" fill="#228BE6"/>
</svg>
