<svg width="1200" height="516" viewBox="0 0 1200 516" fill="none" xmlns="http://www.w3.org/2000/svg">
<g filter="url(#filter0_d_102_454)">
<rect x="24" y="12" width="1152" height="744.649" rx="23.4803" fill="white"/>
<mask id="path-2-inside-1_102_454" fill="white">
<path d="M89.9995 12H47.4803C34.5125 12 24 22.5125 24 35.4802V733.168C24 746.136 34.5125 756.649 47.4803 756.649H89.9995V12Z"/>
</mask>
<path d="M89.9995 12H47.4803C34.5125 12 24 22.5125 24 35.4802V733.168C24 746.136 34.5125 756.649 47.4803 756.649H89.9995V12Z" fill="#F8F9FA"/>
<rect width="34.0642" height="34.0642" rx="8.51606" transform="matrix(-1 0 0 1 74.0318 40.7417)" fill="#25262B"/>
<rect x="-0.532254" y="0.532254" width="39.3868" height="39.3868" rx="11.1773" transform="matrix(-1 0 0 1 76.1608 37.5482)" stroke="#25262B" stroke-width="1.06451"/>
<rect width="34.0642" height="34.0642" rx="8.51606" transform="matrix(-1 0 0 1 74.0318 93.967)" fill="#DEE2E6"/>
<rect width="34.0642" height="34.0642" rx="8.51606" transform="matrix(-1 0 0 1 74.0318 147.192)" fill="#DEE2E6"/>
<g clip-path="url(#clip0_102_454)">
<path d="M56.9997 209.998V224.901" stroke="#25262B" stroke-width="1.59676" stroke-linecap="round" stroke-linejoin="round"/>
<path d="M64.4512 217.45H49.5481" stroke="#25262B" stroke-width="1.59676" stroke-linecap="round" stroke-linejoin="round"/>
</g>
<path d="M89.9995 12H24H89.9995ZM24 756.649H89.9995H24ZM91.064 756.649V12H88.9349V756.649H91.064ZM24 12V756.649V12Z" fill="#DEE2E6" mask="url(#path-2-inside-1_102_454)"/>
<mask id="path-13-inside-2_102_454" fill="white">
<path d="M89.9995 12H1152.36C1165.32 12 1175.84 22.5125 1175.84 35.4802V76.934H89.9995V12Z"/>
</mask>
<path d="M89.9995 12H1152.36C1165.32 12 1175.84 22.5125 1175.84 35.4802V76.934H89.9995V12Z" fill="white"/>
<path d="M157.651 39.0831C156.844 39.0831 156.441 38.4944 156.441 37.3169C156.441 36.1395 157.029 34.8261 158.207 33.3769C160.17 30.9314 162.896 29.5162 166.385 29.1313L168.184 29.0294C172.153 29.0294 175.031 30.671 176.819 33.9544C177.888 35.9696 178.422 38.2906 178.422 40.9173C178.422 42.0042 178.335 43.1477 178.161 44.3478C177.528 48.3783 176.024 51.7975 173.647 54.6054C171.03 57.7075 167.977 59.2586 164.488 59.2586C161.02 59.2586 158.818 58.251 157.88 56.2357C157.596 55.6017 157.455 54.9337 157.455 54.2317C157.455 53.5071 157.64 52.7486 158.011 51.956C158.73 50.5069 159.712 49.7823 160.955 49.7823C161.064 49.7823 161.129 49.8502 161.151 49.9861C161.195 50.0993 161.184 50.2238 161.118 50.3597C161.075 50.4955 160.998 50.5635 160.889 50.5635C160.148 50.5635 159.505 51.0616 158.959 52.0579C158.611 52.7599 158.436 53.4052 158.436 53.994C158.436 54.5827 158.545 55.1262 158.763 55.6243C159.461 57.1641 161.129 57.934 163.768 57.934C166.755 57.934 169.46 56.3489 171.88 53.1788C174.061 50.3257 175.467 46.9744 176.1 43.125C176.318 41.8796 176.427 40.7022 176.427 39.5926C176.427 37.1245 175.893 35.0412 174.824 33.343C173.407 31.056 171.182 29.9125 168.151 29.9125C164.357 29.9125 161.511 31.2371 159.614 33.8864C158.654 35.245 158.174 36.5131 158.174 37.6906C158.174 38.1661 158.273 38.4038 158.469 38.4038C158.338 38.8567 158.065 39.0831 157.651 39.0831ZM162.361 51.956C162.361 48.5142 162.656 45.1743 163.245 41.9362C163.833 38.6756 164.553 36.1055 165.403 34.2261C166.276 32.324 167.115 31.373 167.922 31.373C168.271 31.373 168.446 31.5541 168.446 31.9164C167.464 34.0223 166.603 36.8301 165.861 40.3399C164.488 46.748 163.801 51.3786 163.801 54.2317C163.801 54.5261 163.648 54.6733 163.343 54.6733C162.688 54.6733 162.361 53.7675 162.361 51.956Z" fill="#25262B"/>
<path d="M181.432 55.3186C179.644 55.3186 178.75 53.8581 178.75 50.9371C178.75 49.1935 179.164 47.2801 179.993 45.1969C181.149 42.2759 182.664 40.2832 184.54 39.219C185.346 38.7661 186.099 38.5397 186.797 38.5397C187.494 38.5397 188.04 38.6982 188.432 39.0152C188.847 39.3322 189.108 39.6492 189.217 39.9662L189.413 40.4078C189.348 40.7927 189.163 40.9852 188.857 40.9852C188.509 40.9852 188.301 40.9059 188.236 40.7474C188.192 40.5663 188.138 40.4191 188.072 40.3059C188.007 40.17 187.854 40.0002 187.614 39.7964C187.375 39.57 187.102 39.4568 186.797 39.4568C185.379 39.4568 184.093 40.7814 182.937 43.4307C181.628 46.4876 180.974 49.3633 180.974 52.0579C180.974 53.4166 181.236 54.0959 181.759 54.0959C182.174 54.0959 182.751 53.6204 183.493 52.6693C184.256 51.6956 185.052 50.4842 185.881 49.035C187.32 46.5442 188.487 44.3817 189.381 42.5476C190.122 40.9173 190.885 40.1021 191.671 40.1021C192.085 40.1021 192.292 40.3625 192.292 40.8833C192.096 41.3135 191.845 41.9249 191.54 42.7174C191.234 43.51 190.831 45.0837 190.329 47.4386C189.828 49.7936 189.577 52.1372 189.577 54.4695C189.577 56.8018 189.915 57.9679 190.591 57.9679C190.853 57.9679 191.093 57.8434 191.311 57.5943C191.529 57.3679 191.725 57.0169 191.9 56.5414C191.965 56.2923 192.118 56.1678 192.357 56.1678C192.445 56.1678 192.51 56.2017 192.554 56.2697C192.597 56.3376 192.597 56.4508 192.554 56.6093C192.51 56.7678 192.434 56.9829 192.325 57.2547C192.216 57.549 191.976 57.934 191.605 58.4095C191.256 58.885 190.885 59.1228 190.493 59.1228C189.577 59.1228 188.868 58.5001 188.367 57.2547C187.887 56.0093 187.647 54.5374 187.647 52.8391C187.647 51.1409 187.767 49.5105 188.007 47.9481H187.68C184.91 52.8618 182.828 55.3186 181.432 55.3186Z" fill="#25262B"/>
<path d="M193.143 52.4316C193.143 49.0803 193.47 46.0913 194.124 43.4647C194.8 40.838 195.651 39.5247 196.676 39.5247C197.177 39.5247 197.428 39.8077 197.428 40.3738C197.21 40.9626 196.937 41.7438 196.61 42.7174C196.283 43.6911 195.847 45.4573 195.302 48.0161C194.779 50.5521 194.517 52.8165 194.517 54.8091C194.517 55.1262 194.353 55.2847 194.026 55.2847C193.437 55.2847 193.143 54.3336 193.143 52.4316ZM197.526 36.3319C197.068 36.3319 196.839 35.8791 196.839 34.9733C196.839 34.4299 196.981 33.8638 197.265 33.275C197.548 32.6637 197.952 32.358 198.475 32.358C198.911 32.358 199.129 32.6184 199.129 33.1392C199.129 33.66 198.726 34.5318 197.919 35.7545L197.526 36.3319Z" fill="#25262B"/>
<path d="M202.204 60.2776C200.939 60.2776 200.002 59.587 199.391 58.2057C198.802 56.8244 198.508 54.7525 198.508 51.99C198.508 49.2275 198.9 45.9555 199.685 42.174C200.47 38.3925 201.386 35.2564 202.433 32.7656C203.502 30.2748 204.428 29.0294 205.213 29.0294C205.584 29.0294 205.77 29.2558 205.77 29.7087C205.312 30.7956 204.734 32.4372 204.036 34.6337C203.338 36.8075 202.749 38.8227 202.27 40.6795C201.812 42.5363 201.386 44.7101 200.994 47.2009C200.623 49.6917 200.438 51.8315 200.438 53.6204C200.438 55.3866 200.601 56.7452 200.928 57.6962C201.277 58.6699 201.746 59.1567 202.335 59.1567C202.837 59.1567 203.316 58.9076 203.774 58.4095C204.232 57.934 204.559 57.4585 204.756 56.9829C204.865 56.7339 205.061 56.6659 205.344 56.7791C205.453 56.8244 205.475 56.915 205.41 57.0509C205.366 57.2094 205.279 57.4018 205.148 57.6283C205.039 57.8547 204.832 58.2057 204.527 58.6812C203.872 59.7455 203.098 60.2776 202.204 60.2776Z" fill="#25262B"/>
<path d="M206.684 55.3186C204.896 55.3186 204.002 53.8581 204.002 50.9371C204.002 49.1935 204.416 47.2801 205.245 45.1969C206.4 42.2759 207.916 40.2832 209.791 39.219C210.598 38.7661 211.351 38.5397 212.048 38.5397C212.746 38.5397 213.291 38.6982 213.684 39.0152C214.098 39.3322 214.36 39.6492 214.469 39.9662L214.665 40.4078C214.6 40.7927 214.414 40.9852 214.109 40.9852C213.76 40.9852 213.553 40.9059 213.488 40.7474C213.444 40.5663 213.39 40.4191 213.324 40.3059C213.259 40.17 213.106 40.0002 212.866 39.7964C212.626 39.57 212.354 39.4568 212.048 39.4568C210.631 39.4568 209.344 40.7814 208.189 43.4307C206.88 46.4876 206.226 49.3633 206.226 52.0579C206.226 53.4166 206.488 54.0959 207.011 54.0959C207.425 54.0959 208.003 53.6204 208.745 52.6693C209.508 51.6956 210.304 50.4842 211.133 49.035C212.572 46.5442 213.738 44.3817 214.633 42.5476C215.374 40.9173 216.137 40.1021 216.922 40.1021C217.337 40.1021 217.544 40.3625 217.544 40.8833C217.348 41.3135 217.097 41.9249 216.791 42.7174C216.486 43.51 216.083 45.0837 215.581 47.4386C215.08 49.7936 214.829 52.1372 214.829 54.4695C214.829 56.8018 215.167 57.9679 215.843 57.9679C216.105 57.9679 216.344 57.8434 216.563 57.5943C216.781 57.3679 216.977 57.0169 217.151 56.5414C217.217 56.2923 217.369 56.1678 217.609 56.1678C217.696 56.1678 217.762 56.2017 217.806 56.2697C217.849 56.3376 217.849 56.4508 217.806 56.6093C217.762 56.7678 217.686 56.9829 217.577 57.2547C217.468 57.549 217.228 57.934 216.857 58.4095C216.508 58.885 216.137 59.1228 215.745 59.1228C214.829 59.1228 214.12 58.5001 213.619 57.2547C213.139 56.0093 212.899 54.5374 212.899 52.8391C212.899 51.1409 213.019 49.5105 213.259 47.9481H212.932C210.162 52.8618 208.08 55.3186 206.684 55.3186Z" fill="#25262B"/>
<path d="M114.35 60.7005H135.099C136.759 60.7005 138.105 59.3028 138.105 57.5786C138.105 55.8545 136.759 54.4568 135.099 54.4568H120.363C117.042 54.4568 114.35 57.2522 114.35 60.7005Z" fill="#20C997"/>
<path d="M114.35 43.2183H135.099C136.759 43.2183 138.105 41.8206 138.105 40.0964C138.105 38.3723 136.759 36.9746 135.099 36.9746H120.363C117.042 36.9746 114.35 39.77 114.35 43.2183Z" fill="#FF6B6B"/>
<path d="M147.421 51.9594H126.672C125.012 51.9594 123.666 50.5617 123.666 48.8375C123.666 47.1134 125.012 45.7157 126.672 45.7157H141.408C144.729 45.7157 147.421 48.5111 147.421 51.9594Z" fill="#FCC419"/>
<path d="M147.421 34.4771H126.672C125.012 34.4771 123.666 33.0795 123.666 31.3553C123.666 29.6312 125.012 28.2335 126.672 28.2335H141.408C144.729 28.2335 147.421 31.0289 147.421 34.4771Z" fill="#228BE6"/>
<g clip-path="url(#clip1_102_454)">
<path d="M277.422 41.1769L272.089 37.0289C271.621 36.6648 271.045 36.4672 270.452 36.4672C269.859 36.4672 269.283 36.6648 268.815 37.0289L263.481 41.1769C263.161 41.4262 262.901 41.7455 262.723 42.1103C262.545 42.4751 262.452 42.8759 262.452 43.2819V50.4819C262.452 51.0124 262.663 51.5211 263.038 51.8961C263.413 52.2712 263.922 52.4819 264.452 52.4819H276.452C276.983 52.4819 277.491 52.2712 277.866 51.8961C278.241 51.5211 278.452 51.0124 278.452 50.4819V43.2819C278.452 42.4589 278.072 41.6819 277.422 41.1769Z" stroke="#909296" stroke-width="1.5" stroke-linecap="round" stroke-linejoin="round"/>
<path d="M274.422 47.4669C272.212 48.7999 268.63 48.7999 266.422 47.4669" stroke="#909296" stroke-width="1.5" stroke-linecap="round" stroke-linejoin="round"/>
</g>
<path d="M292.718 38.7995V50.3405H290.539V38.7995H292.718Z" fill="#909296"/>
<path d="M296.642 43.595V50.3405H294.55V41.764H296.516L296.642 43.595ZM296.309 45.7431H295.691C295.696 45.1196 295.781 44.5541 295.945 44.0468C296.109 43.5395 296.339 43.1036 296.634 42.739C296.936 42.3743 297.292 42.0943 297.705 41.8988C298.117 41.7032 298.576 41.6055 299.084 41.6055C299.496 41.6055 299.868 41.6636 300.201 41.7799C300.534 41.8961 300.82 42.0811 301.057 42.3347C301.301 42.5884 301.485 42.9213 301.612 43.3335C301.744 43.7403 301.81 44.2424 301.81 44.8395V50.3405H299.702V44.8236C299.702 44.4326 299.644 44.1235 299.528 43.8962C299.417 43.669 299.253 43.5078 299.036 43.4127C298.825 43.3176 298.563 43.27 298.251 43.27C297.929 43.27 297.646 43.3361 297.403 43.4682C297.166 43.595 296.965 43.7721 296.801 43.9993C296.642 44.2265 296.521 44.4881 296.436 44.784C296.352 45.0799 296.309 45.3996 296.309 45.7431Z" fill="#909296"/>
<path d="M305.552 41.764V50.3405H303.452V41.764H305.552ZM303.309 39.5208C303.309 39.209 303.415 38.9501 303.626 38.744C303.843 38.5379 304.133 38.4349 304.498 38.4349C304.862 38.4349 305.15 38.5379 305.362 38.744C305.579 38.9501 305.687 39.209 305.687 39.5208C305.687 39.8273 305.579 40.0836 305.362 40.2897C305.15 40.4958 304.862 40.5988 304.498 40.5988C304.133 40.5988 303.843 40.4958 303.626 40.2897C303.415 40.0836 303.309 39.8273 303.309 39.5208Z" fill="#909296"/>
<path d="M310.744 48.8503C311.04 48.8503 311.304 48.7922 311.537 48.6759C311.769 48.5597 311.954 48.3958 312.092 48.1845C312.234 47.9731 312.311 47.7274 312.322 47.4473H314.295C314.285 48.0286 314.121 48.5491 313.804 49.0088C313.487 49.4686 313.064 49.8332 312.536 50.1027C312.013 50.3669 311.426 50.499 310.776 50.499C310.115 50.499 309.539 50.388 309.048 50.1661C308.557 49.9442 308.147 49.635 307.819 49.2387C307.497 48.8424 307.254 48.3826 307.09 47.8595C306.932 47.3363 306.852 46.7762 306.852 46.1791V45.9254C306.852 45.3283 306.932 44.7681 307.09 44.245C307.254 43.7218 307.497 43.2621 307.819 42.8658C308.147 42.4695 308.557 42.1603 309.048 41.9384C309.539 41.7164 310.113 41.6055 310.768 41.6055C311.46 41.6055 312.068 41.7402 312.591 42.0097C313.12 42.2792 313.532 42.6597 313.828 43.1511C314.129 43.6426 314.285 44.2212 314.295 44.887H312.322C312.311 44.5806 312.242 44.3058 312.116 44.0627C311.989 43.8196 311.809 43.6241 311.577 43.4761C311.344 43.3282 311.061 43.2542 310.728 43.2542C310.374 43.2542 310.078 43.3282 309.841 43.4761C309.608 43.6241 309.426 43.8275 309.294 44.0865C309.167 44.3401 309.077 44.6255 309.024 44.9425C308.977 45.2543 308.953 45.5819 308.953 45.9254V46.1791C308.953 46.5278 308.977 46.8607 309.024 47.1778C309.077 47.4949 309.167 47.7802 309.294 48.0339C309.426 48.2822 309.608 48.4804 309.841 48.6284C310.078 48.7763 310.38 48.8503 310.744 48.8503Z" fill="#909296"/>
<path d="M317.585 41.764V50.3405H315.485V41.764H317.585ZM315.342 39.5208C315.342 39.209 315.448 38.9501 315.659 38.744C315.876 38.5379 316.166 38.4349 316.531 38.4349C316.896 38.4349 317.184 38.5379 317.395 38.744C317.612 38.9501 317.72 39.209 317.72 39.5208C317.72 39.8273 317.612 40.0836 317.395 40.2897C317.184 40.4958 316.896 40.5988 316.531 40.5988C316.166 40.5988 315.876 40.4958 315.659 40.2897C315.448 40.0836 315.342 39.8273 315.342 39.5208Z" fill="#909296"/>
<path d="M318.885 46.1394V45.973C318.885 45.3441 318.975 44.7655 319.155 44.2371C319.335 43.7034 319.596 43.241 319.94 42.8499C320.283 42.4589 320.703 42.155 321.2 41.9384C321.697 41.7164 322.262 41.6055 322.896 41.6055C323.541 41.6055 324.112 41.7164 324.608 41.9384C325.11 42.155 325.533 42.4589 325.877 42.8499C326.22 43.241 326.482 43.7034 326.661 44.2371C326.841 44.7655 326.931 45.3441 326.931 45.973V46.1394C326.931 46.763 326.841 47.3416 326.661 47.8753C326.482 48.4038 326.22 48.8662 325.877 49.2625C325.533 49.6535 325.113 49.9574 324.616 50.174C324.12 50.3907 323.551 50.499 322.912 50.499C322.278 50.499 321.71 50.3907 321.208 50.174C320.706 49.9574 320.283 49.6535 319.94 49.2625C319.596 48.8662 319.335 48.4038 319.155 47.8753C318.975 47.3416 318.885 46.763 318.885 46.1394ZM320.978 45.973V46.1394C320.978 46.5146 321.015 46.866 321.089 47.1937C321.163 47.5213 321.277 47.8093 321.43 48.0577C321.583 48.306 321.781 48.5015 322.024 48.6442C322.273 48.7816 322.569 48.8503 322.912 48.8503C323.25 48.8503 323.541 48.7816 323.784 48.6442C324.027 48.5015 324.225 48.306 324.378 48.0577C324.537 47.8093 324.653 47.5213 324.727 47.1937C324.801 46.866 324.838 46.5146 324.838 46.1394V45.973C324.838 45.6031 324.801 45.257 324.727 44.9346C324.653 44.607 324.537 44.319 324.378 44.0706C324.225 43.817 324.024 43.6188 323.776 43.4761C323.533 43.3282 323.24 43.2542 322.896 43.2542C322.558 43.2542 322.267 43.3282 322.024 43.4761C321.781 43.6188 321.583 43.817 321.43 44.0706C321.277 44.319 321.163 44.607 321.089 44.9346C321.015 45.257 320.978 45.6031 320.978 45.973Z" fill="#909296"/>
<rect x="351.281" y="24.1751" width="99.6058" height="40.5837" rx="4.05837" fill="#339AF0" fill-opacity="0.12"/>
<g clip-path="url(#clip2_102_454)">
<path d="M385.777 37.3648H373.602C372.481 37.3648 371.573 38.2733 371.573 39.394V51.5691C371.573 52.6898 372.481 53.5983 373.602 53.5983H385.777C386.898 53.5983 387.806 52.6898 387.806 51.5691V39.394C387.806 38.2733 386.898 37.3648 385.777 37.3648Z" stroke="#228BE6" stroke-width="1.52189" stroke-linecap="round" stroke-linejoin="round"/>
<path d="M383.748 35.3356V39.394" stroke="#228BE6" stroke-width="1.52189" stroke-linecap="round" stroke-linejoin="round"/>
<path d="M375.631 35.3356V39.394" stroke="#228BE6" stroke-width="1.52189" stroke-linecap="round" stroke-linejoin="round"/>
<path d="M371.573 43.4524H387.806" stroke="#228BE6" stroke-width="1.52189" stroke-linecap="round" stroke-linejoin="round"/>
<path d="M377.661 47.5108H375.631V49.5399H377.661V47.5108Z" stroke="#228BE6" stroke-width="1.52189" stroke-linecap="round" stroke-linejoin="round"/>
</g>
<path d="M407.092 46.5437H409.271C409.213 47.3152 408.999 47.9995 408.629 48.5966C408.26 49.1885 407.744 49.6535 407.084 49.9917C406.423 50.3299 405.623 50.499 404.682 50.499C403.958 50.499 403.305 50.3722 402.724 50.1185C402.148 49.8596 401.654 49.4923 401.242 49.0167C400.835 48.5359 400.523 47.9599 400.307 47.2888C400.09 46.6124 399.982 45.8541 399.982 45.0138V44.134C399.982 43.2938 400.093 42.5355 400.315 41.8591C400.536 41.1827 400.854 40.6067 401.266 40.1311C401.683 39.6502 402.183 39.2803 402.764 39.0214C403.35 38.7625 404.006 38.633 404.73 38.633C405.67 38.633 406.465 38.8074 407.115 39.1562C407.765 39.4996 408.27 39.9726 408.629 40.575C408.989 41.1774 409.205 41.8697 409.279 42.6517H407.1C407.057 42.1656 406.952 41.7534 406.783 41.4152C406.619 41.077 406.37 40.8207 406.037 40.6463C405.71 40.4667 405.274 40.3768 404.73 40.3768C404.307 40.3768 403.934 40.4561 403.612 40.6146C403.295 40.7732 403.031 41.011 402.819 41.328C402.608 41.6398 402.449 42.0308 402.344 42.5011C402.238 42.9662 402.185 43.5052 402.185 44.1182V45.0138C402.185 45.6004 402.233 46.1262 402.328 46.5912C402.423 47.0562 402.571 47.4499 402.772 47.7723C402.973 48.0946 403.231 48.3403 403.549 48.5094C403.866 48.6785 404.243 48.7631 404.682 48.7631C405.216 48.7631 405.649 48.6785 405.982 48.5094C406.32 48.3403 406.576 48.092 406.751 47.7643C406.931 47.4367 407.044 47.0298 407.092 46.5437Z" fill="#228BE6"/>
<path d="M412.696 41.764V50.3405H410.596V41.764H412.696ZM410.453 39.5208C410.453 39.209 410.559 38.9501 410.77 38.744C410.987 38.5379 411.277 38.4348 411.642 38.4348C412.006 38.4348 412.294 38.5379 412.506 38.744C412.722 38.9501 412.831 39.209 412.831 39.5208C412.831 39.8273 412.722 40.0836 412.506 40.2896C412.294 40.4957 412.006 40.5988 411.642 40.5988C411.277 40.5988 410.987 40.4957 410.77 40.2896C410.559 40.0836 410.453 39.8273 410.453 39.5208Z" fill="#228BE6"/>
<path d="M418.427 41.764V43.27H413.513V41.764H418.427ZM414.829 39.6555H416.929V47.8674C416.929 48.121 416.963 48.3166 417.032 48.454C417.101 48.5913 417.204 48.6838 417.341 48.7314C417.479 48.7789 417.642 48.8027 417.833 48.8027C417.97 48.8027 418.097 48.7948 418.213 48.7789C418.329 48.7631 418.427 48.7472 418.506 48.7314L418.514 50.3008C418.34 50.359 418.142 50.4065 417.92 50.4435C417.703 50.4805 417.458 50.499 417.183 50.499C416.712 50.499 416.3 50.4197 415.946 50.2612C415.592 50.0974 415.317 49.8358 415.122 49.4765C414.926 49.1119 414.829 48.631 414.829 48.0338V39.6555Z" fill="#228BE6"/>
<path d="M424.222 48.5174V44.562C424.222 44.2714 424.172 44.0204 424.071 43.809C423.971 43.5976 423.818 43.4338 423.611 43.3176C423.405 43.2013 423.144 43.1432 422.827 43.1432C422.547 43.1432 422.301 43.1908 422.09 43.2859C421.883 43.381 421.725 43.5157 421.614 43.6901C421.503 43.8592 421.448 44.0547 421.448 44.2767H419.347C419.347 43.9226 419.432 43.5871 419.601 43.27C419.77 42.9477 420.01 42.6623 420.322 42.414C420.639 42.1603 421.017 41.9621 421.455 41.8195C421.899 41.6768 422.396 41.6054 422.946 41.6054C423.596 41.6054 424.174 41.7164 424.682 41.9384C425.194 42.155 425.596 42.4826 425.886 42.9212C426.182 43.3598 426.33 43.9121 426.33 44.5779V48.3192C426.33 48.7472 426.357 49.1145 426.41 49.421C426.468 49.7222 426.552 49.9838 426.663 50.2057V50.3405H424.531C424.431 50.1238 424.354 49.849 424.301 49.5161C424.248 49.1779 424.222 48.845 424.222 48.5174ZM424.515 45.1169L424.531 46.3614H423.207C422.88 46.3614 422.592 46.3957 422.343 46.4644C422.095 46.5278 421.891 46.6229 421.733 46.7498C421.574 46.8713 421.455 47.0193 421.376 47.1936C421.297 47.3627 421.257 47.5556 421.257 47.7723C421.257 47.9836 421.305 48.1739 421.4 48.343C421.5 48.5121 421.643 48.6468 421.828 48.7472C422.018 48.8424 422.24 48.8899 422.494 48.8899C422.864 48.8899 423.186 48.8159 423.461 48.668C423.736 48.5147 423.95 48.3298 424.103 48.1131C424.256 47.8965 424.338 47.6904 424.349 47.4948L424.951 48.3985C424.877 48.6151 424.766 48.845 424.618 49.0881C424.47 49.3312 424.28 49.5584 424.047 49.7698C423.815 49.9811 423.535 50.1555 423.207 50.2929C422.88 50.4303 422.499 50.499 422.066 50.499C421.511 50.499 421.014 50.388 420.576 50.1661C420.137 49.9441 419.791 49.6403 419.537 49.2545C419.284 48.8688 419.157 48.4302 419.157 47.9387C419.157 47.4843 419.241 47.0827 419.41 46.7339C419.58 46.3851 419.831 46.0919 420.163 45.8541C420.496 45.611 420.909 45.4287 421.4 45.3071C421.897 45.1803 422.465 45.1169 423.104 45.1169H424.515Z" fill="#228BE6"/>
<path d="M432.608 47.9942C432.608 47.8145 432.561 47.6534 432.466 47.5107C432.371 47.368 432.191 47.2386 431.927 47.1223C431.668 47.0008 431.287 46.8871 430.785 46.7815C430.341 46.6863 429.932 46.5674 429.557 46.4248C429.181 46.2821 428.859 46.1103 428.59 45.9095C428.32 45.7035 428.109 45.463 427.956 45.1882C427.808 44.9082 427.734 44.5858 427.734 44.2212C427.734 43.8671 427.81 43.5342 427.963 43.2225C428.117 42.9054 428.339 42.628 428.629 42.3902C428.92 42.1471 429.274 41.9569 429.691 41.8195C430.109 41.6768 430.579 41.6054 431.102 41.6054C431.832 41.6054 432.458 41.7243 432.981 41.9621C433.509 42.1999 433.914 42.5276 434.194 42.945C434.474 43.3572 434.614 43.8222 434.614 44.3401H432.521C432.521 44.1129 432.468 43.9068 432.363 43.7218C432.262 43.5369 432.106 43.3889 431.895 43.2779C431.684 43.1617 431.417 43.1036 431.094 43.1036C430.804 43.1036 430.558 43.1511 430.357 43.2462C430.162 43.3414 430.014 43.4655 429.913 43.6188C429.813 43.772 429.763 43.9411 429.763 44.1261C429.763 44.2635 429.789 44.3877 429.842 44.4986C429.9 44.6043 429.993 44.7021 430.119 44.7919C430.246 44.8817 430.418 44.9636 430.635 45.0376C430.857 45.1116 431.129 45.1829 431.451 45.2516C432.091 45.3785 432.648 45.5476 433.124 45.7589C433.604 45.965 433.98 46.2398 434.249 46.5833C434.519 46.9268 434.653 47.3654 434.653 47.8991C434.653 48.2796 434.572 48.6283 434.408 48.9454C434.244 49.2572 434.006 49.5293 433.694 49.7618C433.383 49.9943 433.01 50.1766 432.577 50.3088C432.143 50.4356 431.655 50.499 431.11 50.499C430.323 50.499 429.657 50.359 429.113 50.0789C428.569 49.7935 428.156 49.4342 427.876 49.0009C427.596 48.5623 427.456 48.1078 427.456 47.6375H429.462C429.477 47.9704 429.567 48.2373 429.731 48.4381C429.895 48.6389 430.101 48.7842 430.349 48.8741C430.603 48.9586 430.87 49.0009 431.15 49.0009C431.467 49.0009 431.734 48.9586 431.95 48.8741C432.167 48.7842 432.331 48.6653 432.442 48.5174C432.553 48.3641 432.608 48.1897 432.608 47.9942Z" fill="#228BE6"/>
<g clip-path="url(#clip3_102_454)">
<path d="M483.354 36.3502H481.325C480.204 36.3502 479.295 37.2587 479.295 38.3794V50.5545C479.295 51.6752 480.204 52.5837 481.325 52.5837H483.354C484.475 52.5837 485.383 51.6752 485.383 50.5545V38.3794C485.383 37.2587 484.475 36.3502 483.354 36.3502Z" stroke="#909296" stroke-width="1.52189" stroke-linecap="round" stroke-linejoin="round"/>
<path d="M493.5 36.3502H491.471C490.35 36.3502 489.441 37.2587 489.441 38.3794V44.467C489.441 45.5877 490.35 46.4962 491.471 46.4962H493.5C494.621 46.4962 495.529 45.5877 495.529 44.467V38.3794C495.529 37.2587 494.621 36.3502 493.5 36.3502Z" stroke="#909296" stroke-width="1.52189" stroke-linecap="round" stroke-linejoin="round"/>
</g>
<path d="M513.419 38.9343V50.4753H511.247V38.9343H513.419ZM517.002 38.9343V40.6543H507.704V38.9343H517.002Z" fill="#909296"/>
<path d="M521.568 48.6522V44.6968C521.568 44.4062 521.518 44.1552 521.417 43.9438C521.317 43.7324 521.164 43.5686 520.958 43.4524C520.751 43.3361 520.49 43.278 520.173 43.278C519.893 43.278 519.647 43.3255 519.436 43.4207C519.23 43.5158 519.071 43.6505 518.96 43.8249C518.849 43.994 518.794 44.1895 518.794 44.4115H516.693C516.693 44.0574 516.778 43.7219 516.947 43.4048C517.116 43.0825 517.356 42.7971 517.668 42.5487C517.985 42.2951 518.363 42.0969 518.802 41.9543C519.245 41.8116 519.742 41.7402 520.292 41.7402C520.942 41.7402 521.52 41.8512 522.028 42.0732C522.54 42.2898 522.942 42.6174 523.232 43.056C523.528 43.4946 523.676 44.0469 523.676 44.7127V48.454C523.676 48.882 523.703 49.2493 523.756 49.5558C523.814 49.857 523.898 50.1186 524.009 50.3405V50.4753H521.877C521.777 50.2586 521.7 49.9838 521.647 49.6509C521.594 49.3127 521.568 48.9798 521.568 48.6522ZM521.861 45.2517L521.877 46.4961H520.553C520.226 46.4961 519.938 46.5305 519.689 46.5992C519.441 46.6626 519.238 46.7577 519.079 46.8845C518.92 47.0061 518.802 47.154 518.722 47.3284C518.643 47.4975 518.603 47.6904 518.603 47.9071C518.603 48.1184 518.651 48.3087 518.746 48.4778C518.846 48.6469 518.989 48.7816 519.174 48.882C519.364 48.9771 519.586 49.0247 519.84 49.0247C520.21 49.0247 520.532 48.9507 520.807 48.8028C521.082 48.6495 521.296 48.4646 521.449 48.2479C521.602 48.0312 521.684 47.8252 521.695 47.6296L522.297 48.5333C522.223 48.7499 522.112 48.9798 521.964 49.2229C521.816 49.4659 521.626 49.6932 521.394 49.9045C521.161 50.1159 520.881 50.2903 520.553 50.4277C520.226 50.5651 519.845 50.6338 519.412 50.6338C518.857 50.6338 518.36 50.5228 517.922 50.3009C517.483 50.0789 517.137 49.7751 516.883 49.3893C516.63 49.0036 516.503 48.565 516.503 48.0735C516.503 47.6191 516.587 47.2175 516.757 46.8687C516.926 46.5199 517.177 46.2266 517.51 45.9888C517.842 45.7458 518.255 45.5635 518.746 45.4419C519.243 45.3151 519.811 45.2517 520.45 45.2517H521.861Z" fill="#909296"/>
<path d="M525.23 38.3001H527.331V48.5808L527.125 50.4753H525.23V38.3001ZM532.848 46.0998V46.2663C532.848 46.9057 532.776 47.4922 532.634 48.026C532.496 48.5597 532.288 49.0221 532.007 49.4131C531.727 49.7989 531.379 50.1001 530.961 50.3167C530.549 50.5281 530.065 50.6338 529.511 50.6338C528.982 50.6338 528.522 50.5307 528.131 50.3246C527.746 50.1186 527.421 49.8279 527.156 49.4527C526.892 49.0723 526.681 48.6257 526.522 48.1132C526.364 47.5953 526.245 47.0299 526.166 46.4169V45.9651C526.245 45.3468 526.364 44.7814 526.522 44.2688C526.681 43.7562 526.892 43.3097 527.156 42.9292C527.421 42.5487 527.746 42.2555 528.131 42.0494C528.517 41.8433 528.972 41.7402 529.495 41.7402C530.055 41.7402 530.544 41.8486 530.961 42.0652C531.384 42.2766 531.733 42.5778 532.007 42.9688C532.288 43.3546 532.496 43.8143 532.634 44.3481C532.776 44.8765 532.848 45.4604 532.848 46.0998ZM530.747 46.2663V46.0998C530.747 45.7352 530.718 45.3917 530.66 45.0694C530.602 44.7417 530.507 44.4537 530.375 44.2054C530.242 43.957 530.063 43.7615 529.836 43.6188C529.608 43.4761 529.323 43.4048 528.98 43.4048C528.652 43.4048 528.372 43.4603 528.139 43.5713C527.912 43.6822 527.722 43.8355 527.569 44.031C527.421 44.2265 527.304 44.4564 527.22 44.7206C527.141 44.9848 527.088 45.2702 527.061 45.5767V46.8132C527.098 47.2201 527.185 47.5874 527.323 47.915C527.46 48.2373 527.664 48.4936 527.933 48.6839C528.208 48.8741 528.562 48.9692 528.995 48.9692C529.334 48.9692 529.616 48.9032 529.844 48.7711C530.071 48.6337 530.25 48.4434 530.383 48.2003C530.515 47.952 530.607 47.664 530.66 47.3364C530.718 47.0087 530.747 46.652 530.747 46.2663Z" fill="#909296"/>
<path d="M536.264 38.3001V50.4753H534.164V38.3001H536.264Z" fill="#909296"/>
<path d="M541.789 50.6338C541.139 50.6338 540.556 50.5281 540.038 50.3167C539.52 50.1053 539.079 49.8121 538.714 49.4369C538.355 49.0564 538.077 48.6152 537.882 48.1132C537.691 47.6059 537.596 47.0616 537.596 46.4803V46.1632C537.596 45.5027 537.691 44.9029 537.882 44.3639C538.072 43.8196 538.341 43.352 538.69 42.9609C539.039 42.5699 539.456 42.2687 539.943 42.0573C540.429 41.8459 540.965 41.7402 541.552 41.7402C542.159 41.7402 542.696 41.8433 543.161 42.0494C543.626 42.2502 544.014 42.5355 544.326 42.9054C544.638 43.2753 544.873 43.7192 545.031 44.2371C545.19 44.7497 545.269 45.3177 545.269 45.9413V46.8211H538.547V45.3785H543.208V45.22C543.198 44.8871 543.134 44.5832 543.018 44.3084C542.902 44.0284 542.722 43.8064 542.479 43.6426C542.236 43.4735 541.922 43.389 541.536 43.389C541.224 43.389 540.952 43.4576 540.719 43.595C540.492 43.7271 540.302 43.9174 540.149 44.1658C540.001 44.4088 539.89 44.6995 539.816 45.0377C539.742 45.3759 539.705 45.7511 539.705 46.1632V46.4803C539.705 46.8396 539.752 47.1725 539.847 47.479C539.948 47.7855 540.093 48.0524 540.283 48.2796C540.479 48.5016 540.711 48.6759 540.981 48.8028C541.256 48.9243 541.567 48.9851 541.916 48.9851C542.355 48.9851 542.751 48.9005 543.105 48.7314C543.465 48.557 543.776 48.3007 544.041 47.9625L545.095 49.0564C544.915 49.3206 544.672 49.5743 544.366 49.8174C544.064 50.0604 543.7 50.2586 543.272 50.4118C542.844 50.5598 542.35 50.6338 541.789 50.6338Z" fill="#909296"/>
<path d="M548.44 43.6505V50.4753H546.347V41.8988H548.329L548.44 43.6505ZM551.048 41.8433L551.016 43.7932C550.9 43.7721 550.768 43.7562 550.62 43.7456C550.477 43.7351 550.342 43.7298 550.216 43.7298C549.893 43.7298 549.611 43.7747 549.367 43.8645C549.124 43.9491 548.921 44.0733 548.757 44.2371C548.599 44.4009 548.477 44.6017 548.392 44.8395C548.308 45.072 548.26 45.3362 548.25 45.6322L547.798 45.5767C547.798 45.0324 547.853 44.5277 547.964 44.0627C548.075 43.5977 548.237 43.1908 548.448 42.842C548.659 42.4933 548.924 42.2238 549.241 42.0335C549.563 41.838 549.933 41.7402 550.35 41.7402C550.467 41.7402 550.591 41.7508 550.723 41.7719C550.86 41.7878 550.969 41.8116 551.048 41.8433Z" fill="#909296"/>
<path d="M551.278 46.2742V46.1077C551.278 45.4789 551.368 44.9003 551.548 44.3718C551.727 43.8381 551.989 43.3757 552.332 42.9847C552.676 42.5937 553.096 42.2898 553.593 42.0732C554.089 41.8512 554.655 41.7402 555.289 41.7402C555.934 41.7402 556.504 41.8512 557.001 42.0732C557.503 42.2898 557.926 42.5937 558.269 42.9847C558.613 43.3757 558.874 43.8381 559.054 44.3718C559.234 44.9003 559.323 45.4789 559.323 46.1077V46.2742C559.323 46.8978 559.234 47.4764 559.054 48.0101C558.874 48.5385 558.613 49.0009 558.269 49.3972C557.926 49.7883 557.506 50.0921 557.009 50.3088C556.512 50.5255 555.944 50.6338 555.305 50.6338C554.671 50.6338 554.103 50.5255 553.601 50.3088C553.099 50.0921 552.676 49.7883 552.332 49.3972C551.989 49.0009 551.727 48.5385 551.548 48.0101C551.368 47.4764 551.278 46.8978 551.278 46.2742ZM553.371 46.1077V46.2742C553.371 46.6494 553.408 47.0008 553.482 47.3284C553.556 47.6561 553.669 47.9441 553.822 48.1924C553.976 48.4408 554.174 48.6363 554.417 48.779C554.665 48.9164 554.961 48.9851 555.305 48.9851C555.643 48.9851 555.934 48.9164 556.177 48.779C556.42 48.6363 556.618 48.4408 556.771 48.1924C556.93 47.9441 557.046 47.6561 557.12 47.3284C557.194 47.0008 557.231 46.6494 557.231 46.2742V46.1077C557.231 45.7378 557.194 45.3917 557.12 45.0694C557.046 44.7417 556.93 44.4537 556.771 44.2054C556.618 43.9517 556.417 43.7536 556.169 43.6109C555.926 43.4629 555.632 43.389 555.289 43.389C554.951 43.389 554.66 43.4629 554.417 43.6109C554.174 43.7536 553.976 43.9517 553.822 44.2054C553.669 44.4537 553.556 44.7417 553.482 45.0694C553.408 45.3917 553.371 45.7378 553.371 46.1077Z" fill="#909296"/>
<g clip-path="url(#clip4_102_454)">
<path d="M609.039 43.4524C611.28 43.4524 613.097 41.6354 613.097 39.394C613.097 37.1526 611.28 35.3356 609.039 35.3356C606.797 35.3356 604.98 37.1526 604.98 39.394C604.98 41.6354 606.797 43.4524 609.039 43.4524Z" stroke="#909296" stroke-width="1.52189" stroke-linecap="round" stroke-linejoin="round"/>
<path d="M602.951 53.5983V51.5691C602.951 50.4928 603.379 49.4605 604.14 48.6994C604.901 47.9383 605.933 47.5108 607.009 47.5108H611.068C612.144 47.5108 613.176 47.9383 613.937 48.6994C614.698 49.4605 615.126 50.4928 615.126 51.5691V53.5983" stroke="#909296" stroke-width="1.52189" stroke-linecap="round" stroke-linejoin="round"/>
<path d="M616.141 35.4675C617.014 35.691 617.787 36.1987 618.34 36.9106C618.892 37.6224 619.192 38.4979 619.192 39.3991C619.192 40.3002 618.892 41.1757 618.34 41.8876C617.787 42.5994 617.014 43.1071 616.141 43.3306" stroke="#909296" stroke-width="1.52189" stroke-linecap="round" stroke-linejoin="round"/>
<path d="M621.214 53.5983V51.5691C621.208 50.6734 620.907 49.8045 620.357 49.098C619.806 48.3914 619.037 47.8869 618.17 47.6629" stroke="#909296" stroke-width="1.52189" stroke-linecap="round" stroke-linejoin="round"/>
</g>
<path d="M636.813 46.1315H633.841V44.4194H636.813C637.299 44.4194 637.693 44.3401 637.994 44.1816C638.301 44.0177 638.525 43.7958 638.668 43.5157C638.81 43.2304 638.882 42.9054 638.882 42.5408C638.882 42.1867 638.81 41.8565 638.668 41.55C638.525 41.2435 638.301 40.9951 637.994 40.8049C637.693 40.6146 637.299 40.5195 636.813 40.5195H634.554V50.3405H632.374V38.7995H636.813C637.711 38.7995 638.478 38.9606 639.112 39.283C639.751 39.6 640.237 40.0413 640.57 40.6067C640.908 41.1668 641.077 41.8063 641.077 42.5249C641.077 43.27 640.908 43.9121 640.57 44.4511C640.237 44.9901 639.751 45.4049 639.112 45.6955C638.478 45.9862 637.711 46.1315 636.813 46.1315Z" fill="#909296"/>
<path d="M646.935 48.5174V44.562C646.935 44.2714 646.885 44.0204 646.785 43.809C646.684 43.5976 646.531 43.4338 646.325 43.3176C646.119 43.2013 645.857 43.1432 645.54 43.1432C645.26 43.1432 645.015 43.1908 644.803 43.2859C644.597 43.381 644.439 43.5157 644.328 43.6901C644.217 43.8592 644.161 44.0547 644.161 44.2767H642.061C642.061 43.9226 642.145 43.5871 642.314 43.27C642.483 42.9477 642.724 42.6623 643.036 42.414C643.353 42.1603 643.731 41.9621 644.169 41.8195C644.613 41.6768 645.11 41.6054 645.659 41.6054C646.309 41.6054 646.888 41.7164 647.395 41.9384C647.908 42.155 648.309 42.4826 648.6 42.9212C648.896 43.3598 649.044 43.9121 649.044 44.5779V48.3192C649.044 48.7472 649.07 49.1145 649.123 49.421C649.181 49.7222 649.266 49.9838 649.377 50.2057V50.3405H647.245C647.144 50.1238 647.068 49.849 647.015 49.5161C646.962 49.1779 646.935 48.845 646.935 48.5174ZM647.229 45.1169L647.245 46.3614H645.921C645.593 46.3614 645.305 46.3957 645.057 46.4644C644.809 46.5278 644.605 46.6229 644.447 46.7498C644.288 46.8713 644.169 47.0193 644.09 47.1936C644.011 47.3627 643.971 47.5556 643.971 47.7723C643.971 47.9836 644.018 48.1739 644.114 48.343C644.214 48.5121 644.357 48.6468 644.542 48.7472C644.732 48.8424 644.954 48.8899 645.207 48.8899C645.577 48.8899 645.9 48.8159 646.175 48.668C646.449 48.5147 646.663 48.3298 646.817 48.1131C646.97 47.8965 647.052 47.6904 647.062 47.4948L647.665 48.3985C647.591 48.6151 647.48 48.845 647.332 49.0881C647.184 49.3312 646.994 49.5584 646.761 49.7698C646.529 49.9811 646.248 50.1555 645.921 50.2929C645.593 50.4303 645.213 50.499 644.779 50.499C644.225 50.499 643.728 50.388 643.289 50.1661C642.851 49.9441 642.505 49.6403 642.251 49.2545C641.997 48.8688 641.87 48.4302 641.87 47.9387C641.87 47.4843 641.955 47.0827 642.124 46.7339C642.293 46.3851 642.544 46.0919 642.877 45.8541C643.21 45.611 643.622 45.4287 644.114 45.3071C644.61 45.1803 645.178 45.1169 645.818 45.1169H647.229Z" fill="#909296"/>
<path d="M654.125 48.8503C654.421 48.8503 654.685 48.7922 654.918 48.6759C655.15 48.5596 655.335 48.3958 655.473 48.1845C655.615 47.9731 655.692 47.7274 655.702 47.4473H657.676C657.666 48.0286 657.502 48.5491 657.185 49.0088C656.868 49.4685 656.445 49.8332 655.917 50.1027C655.393 50.3669 654.807 50.499 654.157 50.499C653.496 50.499 652.92 50.388 652.429 50.1661C651.937 49.9441 651.528 49.635 651.2 49.2387C650.878 48.8424 650.635 48.3826 650.471 47.8595C650.312 47.3363 650.233 46.7762 650.233 46.179V45.9254C650.233 45.3283 650.312 44.7681 650.471 44.245C650.635 43.7218 650.878 43.2621 651.2 42.8658C651.528 42.4694 651.937 42.1603 652.429 41.9384C652.92 41.7164 653.494 41.6054 654.149 41.6054C654.841 41.6054 655.449 41.7402 655.972 42.0097C656.5 42.2792 656.913 42.6597 657.209 43.1511C657.51 43.6426 657.666 44.2212 657.676 44.887H655.702C655.692 44.5805 655.623 44.3057 655.496 44.0627C655.37 43.8196 655.19 43.6241 654.957 43.4761C654.725 43.3281 654.442 43.2542 654.109 43.2542C653.755 43.2542 653.459 43.3281 653.221 43.4761C652.989 43.6241 652.807 43.8275 652.675 44.0864C652.548 44.3401 652.458 44.6254 652.405 44.9425C652.358 45.2543 652.334 45.5819 652.334 45.9254V46.179C652.334 46.5278 652.358 46.8607 652.405 47.1778C652.458 47.4948 652.548 47.7802 652.675 48.0338C652.807 48.2822 652.989 48.4804 653.221 48.6283C653.459 48.7763 653.76 48.8503 654.125 48.8503Z" fill="#909296"/>
<path d="M660.966 41.764V50.3405H658.865V41.764H660.966ZM658.723 39.5208C658.723 39.209 658.828 38.9501 659.04 38.744C659.257 38.5379 659.547 38.4348 659.912 38.4348C660.276 38.4348 660.564 38.5379 660.776 38.744C660.992 38.9501 661.101 39.209 661.101 39.5208C661.101 39.8273 660.992 40.0836 660.776 40.2896C660.564 40.4957 660.276 40.5988 659.912 40.5988C659.547 40.5988 659.257 40.4957 659.04 40.2896C658.828 40.0836 658.723 39.8273 658.723 39.5208Z" fill="#909296"/>
<path d="M666.491 50.499C665.841 50.499 665.257 50.3933 664.739 50.1819C664.221 49.9706 663.78 49.6773 663.416 49.3021C663.056 48.9216 662.779 48.4804 662.583 47.9784C662.393 47.4711 662.298 46.9268 662.298 46.3455V46.0284C662.298 45.3679 662.393 44.7681 662.583 44.2291C662.774 43.6848 663.043 43.2172 663.392 42.8261C663.741 42.4351 664.158 42.1339 664.644 41.9225C665.13 41.7111 665.667 41.6054 666.253 41.6054C666.861 41.6054 667.397 41.7085 667.862 41.9146C668.327 42.1154 668.716 42.4007 669.028 42.7706C669.339 43.1405 669.575 43.5844 669.733 44.1023C669.892 44.6149 669.971 45.1829 669.971 45.8065V46.6863H663.249V45.2437H667.91V45.0852C667.899 44.7523 667.836 44.4484 667.72 44.1736C667.603 43.8936 667.424 43.6716 667.181 43.5078C666.938 43.3387 666.623 43.2542 666.237 43.2542C665.926 43.2542 665.654 43.3229 665.421 43.4603C665.194 43.5924 665.004 43.7826 664.85 44.031C664.702 44.274 664.591 44.5647 664.517 44.9029C664.443 45.2411 664.406 45.6163 664.406 46.0284V46.3455C664.406 46.7048 664.454 47.0378 664.549 47.3442C664.65 47.6507 664.795 47.9176 664.985 48.1448C665.181 48.3668 665.413 48.5411 665.683 48.668C665.957 48.7895 666.269 48.8503 666.618 48.8503C667.057 48.8503 667.453 48.7657 667.807 48.5966C668.166 48.4222 668.478 48.166 668.742 47.8278L669.796 48.9216C669.617 49.1858 669.374 49.4395 669.067 49.6826C668.766 49.9256 668.401 50.1238 667.973 50.2771C667.545 50.425 667.051 50.499 666.491 50.499Z" fill="#909296"/>
<path d="M673.102 43.595V50.3405H671.01V41.764H672.975L673.102 43.595ZM672.769 45.7431H672.151C672.156 45.1195 672.241 44.5541 672.405 44.0468C672.568 43.5395 672.798 43.1036 673.094 42.7389C673.395 42.3743 673.752 42.0943 674.164 41.8987C674.576 41.7032 675.036 41.6054 675.543 41.6054C675.956 41.6054 676.328 41.6636 676.661 41.7798C676.994 41.8961 677.279 42.081 677.517 42.3347C677.76 42.5883 677.945 42.9212 678.072 43.3334C678.204 43.7403 678.27 44.2423 678.27 44.8395V50.3405H676.162V44.8236C676.162 44.4326 676.104 44.1234 675.987 43.8962C675.876 43.669 675.713 43.5078 675.496 43.4127C675.285 43.3176 675.023 43.27 674.711 43.27C674.389 43.27 674.106 43.3361 673.863 43.4682C673.625 43.595 673.424 43.772 673.261 43.9993C673.102 44.2265 672.981 44.4881 672.896 44.784C672.811 45.0799 672.769 45.3996 672.769 45.7431Z" fill="#909296"/>
<path d="M683.851 41.764V43.27H678.936V41.764H683.851ZM680.252 39.6555H682.353V47.8674C682.353 48.121 682.387 48.3166 682.456 48.454C682.524 48.5913 682.627 48.6838 682.765 48.7314C682.902 48.7789 683.066 48.8027 683.256 48.8027C683.394 48.8027 683.521 48.7948 683.637 48.7789C683.753 48.7631 683.851 48.7472 683.93 48.7314L683.938 50.3008C683.764 50.359 683.565 50.4065 683.343 50.4435C683.127 50.4805 682.881 50.499 682.606 50.499C682.136 50.499 681.724 50.4197 681.37 50.2612C681.016 50.0974 680.741 49.8358 680.545 49.4765C680.35 49.1119 680.252 48.631 680.252 48.0338V39.6555Z" fill="#909296"/>
<path d="M688.773 50.499C688.123 50.499 687.54 50.3933 687.022 50.1819C686.504 49.9706 686.063 49.6773 685.698 49.3021C685.339 48.9216 685.061 48.4804 684.866 47.9784C684.675 47.4711 684.58 46.9268 684.58 46.3455V46.0284C684.58 45.3679 684.675 44.7681 684.866 44.2291C685.056 43.6848 685.325 43.2172 685.674 42.8261C686.023 42.4351 686.44 42.1339 686.927 41.9225C687.413 41.7111 687.949 41.6054 688.536 41.6054C689.143 41.6054 689.68 41.7085 690.145 41.9146C690.61 42.1154 690.998 42.4007 691.31 42.7706C691.622 43.1405 691.857 43.5844 692.015 44.1023C692.174 44.6149 692.253 45.1829 692.253 45.8065V46.6863H685.532V45.2437H690.192V45.0852C690.182 44.7523 690.118 44.4484 690.002 44.1736C689.886 43.8936 689.706 43.6716 689.463 43.5078C689.22 43.3387 688.906 43.2542 688.52 43.2542C688.208 43.2542 687.936 43.3229 687.703 43.4603C687.476 43.5924 687.286 43.7826 687.133 44.031C686.985 44.274 686.874 44.5647 686.8 44.9029C686.726 45.2411 686.689 45.6163 686.689 46.0284V46.3455C686.689 46.7048 686.736 47.0378 686.831 47.3442C686.932 47.6507 687.077 47.9176 687.267 48.1448C687.463 48.3668 687.695 48.5411 687.965 48.668C688.24 48.7895 688.552 48.8503 688.9 48.8503C689.339 48.8503 689.735 48.7657 690.089 48.5966C690.449 48.4222 690.76 48.166 691.025 47.8278L692.079 48.9216C691.899 49.1858 691.656 49.4395 691.35 49.6826C691.048 49.9256 690.684 50.1238 690.256 50.2771C689.828 50.425 689.334 50.499 688.773 50.499Z" fill="#909296"/>
<path d="M698.048 47.9942C698.048 47.8145 698 47.6534 697.905 47.5107C697.81 47.368 697.63 47.2386 697.366 47.1223C697.107 47.0008 696.727 46.8871 696.225 46.7815C695.781 46.6863 695.371 46.5674 694.996 46.4248C694.621 46.2821 694.299 46.1103 694.029 45.9095C693.76 45.7035 693.548 45.463 693.395 45.1882C693.247 44.9082 693.173 44.5858 693.173 44.2212C693.173 43.8671 693.25 43.5342 693.403 43.2225C693.556 42.9054 693.778 42.628 694.069 42.3902C694.359 42.1471 694.713 41.9569 695.131 41.8195C695.548 41.6768 696.019 41.6054 696.542 41.6054C697.271 41.6054 697.897 41.7243 698.42 41.9621C698.949 42.1999 699.353 42.5276 699.633 42.945C699.913 43.3572 700.053 43.8222 700.053 44.3401H697.961C697.961 44.1129 697.908 43.9068 697.802 43.7218C697.702 43.5369 697.546 43.3889 697.334 43.2779C697.123 43.1617 696.856 43.1036 696.534 43.1036C696.243 43.1036 695.997 43.1511 695.797 43.2462C695.601 43.3414 695.453 43.4655 695.353 43.6188C695.252 43.772 695.202 43.9411 695.202 44.1261C695.202 44.2635 695.229 44.3877 695.281 44.4986C695.34 44.6043 695.432 44.7021 695.559 44.7919C695.686 44.8817 695.857 44.9636 696.074 45.0376C696.296 45.1116 696.568 45.1829 696.891 45.2516C697.53 45.3785 698.087 45.5476 698.563 45.7589C699.044 45.965 699.419 46.2398 699.689 46.5833C699.958 46.9268 700.093 47.3654 700.093 47.8991C700.093 48.2796 700.011 48.6283 699.847 48.9454C699.683 49.2572 699.446 49.5293 699.134 49.7618C698.822 49.9943 698.449 50.1766 698.016 50.3088C697.583 50.4356 697.094 50.499 696.55 50.499C695.762 50.499 695.097 50.359 694.552 50.0789C694.008 49.7935 693.596 49.4342 693.316 49.0009C693.036 48.5623 692.896 48.1078 692.896 47.6375H694.901C694.917 47.9704 695.007 48.2373 695.17 48.4381C695.334 48.6389 695.54 48.7842 695.789 48.8741C696.042 48.9586 696.309 49.0009 696.589 49.0009C696.906 49.0009 697.173 48.9586 697.39 48.8741C697.607 48.7842 697.77 48.6653 697.881 48.5174C697.992 48.3641 698.048 48.1897 698.048 47.9942Z" fill="#909296"/>
<g clip-path="url(#clip5_102_454)">
<path d="M746.694 39.3291L747.988 43.6401M753.677 49.3309L757.99 50.6245" stroke="#909296" stroke-width="1.52189" stroke-linecap="round" stroke-linejoin="round"/>
<path d="M752.53 44.7886L758.373 38.9456" stroke="#909296" stroke-width="1.52189" stroke-linecap="round" stroke-linejoin="round"/>
<path d="M746.257 39.394C747.097 39.394 747.779 38.7126 747.779 37.8721C747.779 37.0316 747.097 36.3502 746.257 36.3502C745.416 36.3502 744.735 37.0316 744.735 37.8721C744.735 38.7126 745.416 39.394 746.257 39.394Z" stroke="#909296" stroke-width="1.52189" stroke-linecap="round" stroke-linejoin="round"/>
<path d="M759.447 39.394C760.287 39.394 760.969 38.7126 760.969 37.8721C760.969 37.0316 760.287 36.3502 759.447 36.3502C758.606 36.3502 757.925 37.0316 757.925 37.8721C757.925 38.7126 758.606 39.394 759.447 39.394Z" stroke="#909296" stroke-width="1.52189" stroke-linecap="round" stroke-linejoin="round"/>
<path d="M759.447 52.5837C760.287 52.5837 760.969 51.9023 760.969 51.0618C760.969 50.2213 760.287 49.5399 759.447 49.5399C758.606 49.5399 757.925 50.2213 757.925 51.0618C757.925 51.9023 758.606 52.5837 759.447 52.5837Z" stroke="#909296" stroke-width="1.52189" stroke-linecap="round" stroke-linejoin="round"/>
<path d="M749.301 52.5837C751.822 52.5837 753.866 50.5396 753.866 48.018C753.866 45.4965 751.822 43.4524 749.301 43.4524C746.779 43.4524 744.735 45.4965 744.735 48.018C744.735 50.5396 746.779 52.5837 749.301 52.5837Z" stroke="#909296" stroke-width="1.52189" stroke-linecap="round" stroke-linejoin="round"/>
</g>
<path d="M780.793 47.0589V48.771H774.658V47.0589H780.793ZM775.323 37.23V48.771H773.144V37.23H775.323ZM779.992 41.9939V43.6663H774.658V41.9939H779.992ZM780.769 37.23V38.9501H774.658V37.23H780.769Z" fill="#909296"/>
<path d="M786.801 52.0684V41.9225L787.055 40.1945H788.91V52.0684H786.801ZM781.3 44.57V44.4035C781.3 43.7483 781.374 43.1538 781.522 42.62C781.67 42.081 781.887 41.6213 782.172 41.2408C782.463 40.8551 782.817 40.5592 783.234 40.3531C783.652 40.1417 784.13 40.036 784.669 40.036C785.198 40.036 785.655 40.1391 786.04 40.3451C786.426 40.5512 786.754 40.8445 787.023 41.225C787.293 41.6002 787.507 42.0467 787.665 42.5646C787.829 43.0824 787.951 43.6558 788.03 44.2846V44.7364C787.951 45.3388 787.829 45.8963 787.665 46.4089C787.507 46.9162 787.293 47.3601 787.023 47.7406C786.759 48.1158 786.431 48.409 786.04 48.6204C785.649 48.8265 785.187 48.9296 784.653 48.9296C784.12 48.9296 783.644 48.8212 783.227 48.6046C782.814 48.3826 782.463 48.0761 782.172 47.6851C781.887 47.294 781.67 46.8343 781.522 46.3059C781.374 45.7722 781.3 45.1935 781.3 44.57ZM783.401 44.4035V44.57C783.401 44.9452 783.433 45.2966 783.496 45.6242C783.565 45.9465 783.67 46.2319 783.813 46.4803C783.956 46.7286 784.138 46.9241 784.36 47.0668C784.587 47.2095 784.862 47.2808 785.184 47.2808C785.618 47.2808 785.969 47.1857 786.239 46.9955C786.513 46.8052 786.719 46.549 786.857 46.2266C787 45.899 787.092 45.5344 787.134 45.1328V43.8962C787.108 43.5739 787.052 43.2779 786.968 43.0084C786.883 42.7389 786.764 42.5064 786.611 42.3109C786.463 42.1154 786.273 41.9621 786.04 41.8512C785.808 41.7402 785.528 41.6847 785.2 41.6847C784.878 41.6847 784.603 41.7561 784.376 41.8987C784.149 42.0361 783.964 42.229 783.821 42.4774C783.678 42.7257 783.573 43.0137 783.504 43.3414C783.435 43.669 783.401 44.023 783.401 44.4035Z" fill="#909296"/>
<path d="M795.624 46.7339V40.1945H797.732V48.771H795.751L795.624 46.7339ZM795.893 44.9584L796.543 44.9425C796.543 45.5185 796.48 46.0496 796.353 46.5357C796.226 47.0219 796.028 47.4447 795.759 47.804C795.494 48.158 795.159 48.4355 794.752 48.6363C794.345 48.8318 793.864 48.9296 793.309 48.9296C792.887 48.9296 792.501 48.8714 792.152 48.7552C791.803 48.6336 791.502 48.446 791.248 48.1924C791 47.9335 790.807 47.6032 790.67 47.2016C790.532 46.7947 790.464 46.3059 790.464 45.7352V40.1945H792.556V45.751C792.556 46.0364 792.588 46.2742 792.651 46.4644C792.72 46.6546 792.813 46.8105 792.929 46.9321C793.05 47.0483 793.19 47.1329 793.349 47.1857C793.513 47.2333 793.687 47.2571 793.872 47.2571C794.379 47.2571 794.778 47.1567 795.069 46.9558C795.365 46.7498 795.576 46.475 795.703 46.1315C795.83 45.7827 795.893 45.3917 795.893 44.9584Z" fill="#909296"/>
<path d="M801.482 40.1945V48.771H799.381V40.1945H801.482ZM799.239 37.9513C799.239 37.6396 799.344 37.3806 799.556 37.1745C799.772 36.9684 800.063 36.8654 800.428 36.8654C800.792 36.8654 801.08 36.9684 801.292 37.1745C801.508 37.3806 801.617 37.6396 801.617 37.9513C801.617 38.2578 801.508 38.5141 801.292 38.7202C801.08 38.9263 800.792 39.0293 800.428 39.0293C800.063 39.0293 799.772 38.9263 799.556 38.7202C799.344 38.5141 799.239 38.2578 799.239 37.9513Z" fill="#909296"/>
<path d="M805.247 41.8433V52.0684H803.147V40.1945H805.089L805.247 41.8433ZM810.756 44.3956V44.562C810.756 45.1856 810.682 45.7642 810.534 46.2979C810.392 46.8264 810.18 47.2888 809.9 47.6851C809.62 48.0761 809.271 48.3826 808.854 48.6046C808.442 48.8212 807.966 48.9296 807.427 48.9296C806.899 48.9296 806.439 48.8291 806.048 48.6283C805.657 48.4223 805.327 48.1316 805.057 47.7564C804.788 47.3812 804.571 46.9453 804.407 46.4486C804.249 45.9465 804.13 45.3996 804.05 44.8078V44.2767C804.13 43.6479 804.249 43.0771 804.407 42.5646C804.571 42.0467 804.788 41.6002 805.057 41.225C805.327 40.8445 805.654 40.5512 806.04 40.3451C806.431 40.1391 806.888 40.036 807.411 40.036C807.956 40.036 808.434 40.1391 808.846 40.3451C809.263 40.5512 809.615 40.8472 809.9 41.2329C810.186 41.6187 810.4 42.0784 810.542 42.6121C810.685 43.1458 810.756 43.7403 810.756 44.3956ZM808.656 44.562V44.3956C808.656 44.0151 808.621 43.6637 808.553 43.3414C808.484 43.0137 808.378 42.7284 808.236 42.4853C808.093 42.2369 807.908 42.0441 807.681 41.9067C807.454 41.7693 807.179 41.7006 806.856 41.7006C806.534 41.7006 806.257 41.7534 806.024 41.8591C805.792 41.9648 805.601 42.1154 805.453 42.3109C805.305 42.5064 805.189 42.7389 805.105 43.0084C805.025 43.2727 804.973 43.5659 804.946 43.8883V45.2041C804.994 45.5951 805.086 45.9465 805.224 46.2583C805.361 46.5701 805.562 46.8185 805.826 47.0034C806.095 47.1884 806.444 47.2808 806.872 47.2808C807.195 47.2808 807.469 47.2095 807.697 47.0668C807.924 46.9241 808.109 46.7286 808.251 46.4803C808.394 46.2266 808.497 45.936 808.561 45.6083C808.624 45.2807 808.656 44.9319 808.656 44.562Z" fill="#909296"/>
<path d="M811.589 44.57V44.4035C811.589 43.7747 811.679 43.196 811.858 42.6676C812.038 42.1339 812.3 41.6715 812.643 41.2805C812.987 40.8894 813.407 40.5856 813.903 40.3689C814.4 40.147 814.966 40.036 815.6 40.036C816.244 40.036 816.815 40.147 817.312 40.3689C817.814 40.5856 818.237 40.8894 818.58 41.2805C818.924 41.6715 819.185 42.1339 819.365 42.6676C819.544 43.196 819.634 43.7747 819.634 44.4035V44.57C819.634 45.1935 819.544 45.7722 819.365 46.3059C819.185 46.8343 818.924 47.2967 818.58 47.693C818.237 48.0841 817.816 48.3879 817.32 48.6046C816.823 48.8212 816.255 48.9296 815.616 48.9296C814.981 48.9296 814.413 48.8212 813.911 48.6046C813.409 48.3879 812.987 48.0841 812.643 47.693C812.3 47.2967 812.038 46.8343 811.858 46.3059C811.679 45.7722 811.589 45.1935 811.589 44.57ZM813.681 44.4035V44.57C813.681 44.9452 813.718 45.2966 813.792 45.6242C813.866 45.9518 813.98 46.2398 814.133 46.4882C814.287 46.7365 814.485 46.9321 814.728 47.0747C814.976 47.2121 815.272 47.2808 815.616 47.2808C815.954 47.2808 816.244 47.2121 816.487 47.0747C816.731 46.9321 816.929 46.7365 817.082 46.4882C817.24 46.2398 817.357 45.9518 817.431 45.6242C817.505 45.2966 817.542 44.9452 817.542 44.57V44.4035C817.542 44.0336 817.505 43.6875 817.431 43.3651C817.357 43.0375 817.24 42.7495 817.082 42.5012C816.929 42.2475 816.728 42.0493 816.48 41.9067C816.236 41.7587 815.943 41.6847 815.6 41.6847C815.261 41.6847 814.971 41.7587 814.728 41.9067C814.485 42.0493 814.287 42.2475 814.133 42.5012C813.98 42.7495 813.866 43.0375 813.792 43.3651C813.718 43.6875 813.681 44.0336 813.681 44.4035Z" fill="#909296"/>
<path d="M89.9995 12H1175.84H89.9995ZM1175.84 77.9486H89.9995V75.9194H1175.84V77.9486ZM89.9995 76.934V12V76.934ZM1175.84 12V76.934V12Z" fill="#DEE2E6" mask="url(#path-13-inside-2_102_454)"/>
<rect x="114.986" y="111.791" width="201.05" height="35.2204" rx="17.6102" fill="#F8F9FA"/>
<rect x="1002.83" y="126.466" width="140.882" height="35.2204" rx="17.6102" fill="#228BE6"/>
<rect x="114.986" y="157.284" width="201.05" height="23.4803" rx="11.7401" fill="#F8F9FA"/>
<rect x="114.986" y="204.245" width="1028.73" height="507.76" rx="23.4803" fill="white"/>
<rect x="114.986" y="204.245" width="239.572" height="507.76" rx="11.7401" fill="#F8F9FA"/>
<rect x="378.038" y="204.245" width="239.572" height="507.76" rx="11.7401" fill="#F8F9FA"/>
<rect x="641.09" y="204.245" width="239.572" height="507.76" rx="11.7401" fill="#F8F9FA"/>
<rect x="904.143" y="204.245" width="239.572" height="507.76" rx="11.7401" fill="#F8F9FA"/>
</g>
<defs>
<filter id="filter0_d_102_454" x="0.519745" y="0.259861" width="1198.96" height="791.609" filterUnits="userSpaceOnUse" color-interpolation-filters="sRGB">
<feFlood flood-opacity="0" result="BackgroundImageFix"/>
<feColorMatrix in="SourceAlpha" type="matrix" values="0 0 0 0 0 0 0 0 0 0 0 0 0 0 0 0 0 0 127 0" result="hardAlpha"/>
<feOffset dy="11.7401"/>
<feGaussianBlur stdDeviation="11.7401"/>
<feComposite in2="hardAlpha" operator="out"/>
<feColorMatrix type="matrix" values="0 0 0 0 0 0 0 0 0 0 0 0 0 0 0 0 0 0 0.04 0"/>
<feBlend mode="normal" in2="BackgroundImageFix" result="effect1_dropShadow_102_454"/>
<feBlend mode="normal" in="SourceGraphic" in2="effect1_dropShadow_102_454" result="shape"/>
</filter>
<clipPath id="clip0_102_454">
<rect width="25.5482" height="25.5482" fill="white" transform="matrix(-1 0 0 1 69.7738 204.676)"/>
</clipPath>
<clipPath id="clip1_102_454">
<rect width="24" height="24" fill="white" transform="translate(258.422 32.4669)"/>
</clipPath>
<clipPath id="clip2_102_454">
<rect width="24.3502" height="24.3502" fill="white" transform="translate(367.515 32.2918)"/>
</clipPath>
<clipPath id="clip3_102_454">
<rect width="24.3502" height="24.3502" fill="white" transform="translate(475.237 32.2918)"/>
</clipPath>
<clipPath id="clip4_102_454">
<rect width="24.3502" height="24.3502" fill="white" transform="translate(599.907 32.2918)"/>
</clipPath>
<clipPath id="clip5_102_454">
<rect width="24.3502" height="24.3502" fill="white" transform="translate(740.677 32.2918)"/>
</clipPath>
</defs>
</svg>
